<?xml version="1.0" encoding="UTF-8"?>
<svg width="96px" height="28px" viewBox="0 0 96 28" version="1.1" xmlns="http://www.w3.org/2000/svg" xmlns:xlink="http://www.w3.org/1999/xlink">
    <!-- Generator: Sketch 60.1 (88133) - https://sketch.com -->
    <title>Vittle Wordmark (White)</title>
    <desc>Created with Sketch.</desc>
    <g id="Page-3" stroke="none" stroke-width="1" fill="none" fill-rule="evenodd">
        <g id="Catering" transform="translate(-40.000000, -27.000000)" fill="#00B89B" fill-rule="nonzero">
            <g id="Vittle-Wordmark-(White)" transform="translate(40.000000, 27.000000)">
                <path d="M37.9325678,4 C37.4611914,6.34782609 35.6185383,8 33.4330659,8 C31.2475936,8 29.7049072,6.17391304 30.0477264,4 C30.433398,1.73913043 31.8903796,0 34.5472283,0 C36.6898482,0 38.3610918,1.82608696 37.9325678,4 Z" id="Shape"></path>
                <path d="M84.4006346,20.9748918 C87.7634387,20.9748918 92.8985314,19.6935828 94.9889231,16.733317 C97.3065313,13.4195867 95.6705726,8.91291356 89.7629438,9.0012797 C85.1277274,9.08964585 79.8108615,11.1220671 77.6750265,16.9542324 C75.9027379,21.8585532 77.3114801,27.9558169 85.6276037,28 C89.8083871,28 92.989418,26.6303248 93.6256242,26.100128 C94.67082,25.2164666 94.5799334,22.9189469 93.4892943,23.5375099 C92.6713149,23.9793406 91.3989025,24.7304528 88.8540779,24.7304528 C86.3092532,24.7304528 83.855315,23.2724115 85.4912738,18.2355414 C86.9454593,13.7730513 89.6266139,11.5197147 91.4897891,11.5638978 C92.989418,11.6080809 93.4892943,14.3916143 90.3082634,16.8658662 C89.035851,17.8820769 86.3546964,18.6773721 84.8096243,18.8099213 C84.5369645,19.207569 83.5826553,20.9748918 84.4006346,20.9748918 Z" id="Shape"></path>
                <path d="M66.5825234,8.68181818 C66.4948206,8.86363636 66.3194151,9 66.1440095,9 L39.4823653,9 C39.2192569,9 39,8.77272727 39,8.45454545 L39.2631083,7.45454545 C39.3508111,7.18181818 39.5700681,7 39.8331764,7 L66.6263748,7 C66.8894831,7 67.0648887,7.27272727 66.9771859,7.54545455 L66.5825234,8.68181818 Z" id="Shape"></path>
                <path d="M22.5413637,0.000552116564 C21.6557295,0.000552116564 19.1316719,0.565750324 18.5560096,3.21783422 C17.8032205,6.69597703 20.7258135,7.43508238 20.5486867,11.347993 C20.4601233,12.9566341 18.9988268,15.5652412 17.0061497,17.9999412 C14.9249093,20.5650715 11.4709357,23.6519233 9.87679411,23.6519233 C7.9726805,23.6084465 8.23837077,21.6954679 9.30113185,18.652093 C10.7181466,14.6087519 14.8806276,2.95697351 15.9433886,0.000552116564 C14.6149373,0.000552116564 8.54834275,0.000552116564 7.70699022,0.000552116564 C7.70699022,0.000552116564 1.81752254,16.4782537 0.577634604,19.9563965 C-1.06078874,24.521459 0.887606587,28.0430786 5.13865093,27.9996018 C11.5152174,27.956125 17.0504314,22.2606661 19.8401793,18.7390465 C21.1686306,17.1304055 24.2683505,12.6088198 26.0839007,8.47852523 C28.65224,2.47872887 25.2868299,-0.0429246686 22.5413637,0.000552116564 Z" id="Shape"></path>
                <path d="M61.2045301,26.3069767 C62.311177,25.655814 62.4495078,23.1813953 61.3889712,23.7891473 C60.3745449,24.4403101 59.59067,24.744186 58.7606848,24.744186 C57.3312659,24.7875969 57.1468247,23.9193798 57.7923688,22.2697674 C59.4523391,17.7984496 65.0777942,2.4744186 66,0 C64.3861399,0 58.7606848,0 57.4234865,0 C56.4090601,2.82170543 50.460833,18.9705426 49.4925169,21.6186047 C47.740326,26.3937984 50.9680461,28 54.3802075,28 C57.0546041,28 59.59067,27.3054264 61.2045301,26.3069767 Z" id="Shape"></path>
                <path d="M48.5491797,23.9130435 C47.7201054,24.5217391 46.6728536,24.826087 46.0183212,24.7826087 C44.6656209,24.7391304 44.7965274,23.6521739 45.4946953,21.6521739 C46.978302,17.5652174 51.9527482,2.86956522 53,0 C51.1673093,0 46.1492276,0 44.8837984,0 C43.9238175,2.73913043 38.6002874,18.2608696 37.4657646,21.4347826 C35.8076159,26.2173913 38.8621004,28 42.1347623,28 C44.0983595,28 46.978302,27.5652174 48.6800862,26.3478261 C49.4655251,25.7826087 49.727338,23.4347826 48.5491797,23.9130435 Z" id="Shape"></path>
                <path d="M35.845636,23.9348837 C34.8688665,24.5976744 34.0696914,24.7744186 33.2261177,24.7744186 C32.0717538,24.7744186 31.6721662,24.2883721 32.3381455,22.3 C33.4925094,18.8976744 36.3784194,10.8116279 37,9 C35.8012374,9 30.1626133,9 28.7418577,9 C27.6762909,12.0046512 25.6339546,17.8813953 24.4795906,21.1069767 C23.0144364,25.2604651 24.9679754,28 29.4966341,28 C32.2049496,28 34.2028873,27.2930233 35.6236429,26.4534884 C36.8668042,25.6581395 36.6448111,23.3604651 35.845636,23.9348837 Z" id="Shape"></path>
                <path d="M75.3009656,23.875969 C74.4341534,24.3100775 73.4304762,24.7875969 72.4724206,24.744186 C71.3318783,24.7007752 71.1037698,24.179845 71.6056085,22.7906977 C73.2479894,18.3193798 79.0875661,2.43100775 80,0 C79.2244312,0 72.1986905,0 71.5143651,0 C71.2406349,0.824806202 70.4650661,2.77829457 69.598254,5.16589147 C67.4540344,11.0263566 64.2148942,19.751938 63.5305688,21.6186047 C61.7969444,26.3937984 64.5798677,28 68.0014947,28 C70.6931746,28 73.5673413,27.4790698 75.392209,26.2635659 C76.6239947,25.3953488 76.4415079,23.2248062 75.3009656,23.875969 Z" id="Shape"></path>
            </g>
        </g>
    </g>
</svg>